<mxfile host="app.diagrams.net" agent="Mozilla/5.0 (Windows NT 10.0; Win64; x64) AppleWebKit/537.36 (KHTML, like Gecko) Chrome/132.0.0.0 Safari/537.36" version="26.0.10">
  <diagram id="C5RBs43oDa-KdzZeNtuy" name="Page-1">
    <mxGraphModel dx="2427" dy="1803" grid="1" gridSize="10" guides="1" tooltips="1" connect="1" arrows="1" fold="1" page="1" pageScale="1" pageWidth="827" pageHeight="1169" math="0" shadow="0">
      <root>
        <mxCell id="WIyWlLk6GJQsqaUBKTNV-0" />
        <mxCell id="WIyWlLk6GJQsqaUBKTNV-1" parent="WIyWlLk6GJQsqaUBKTNV-0" />
        <mxCell id="6wN4SVHl45gBpFmaKFTB-44" style="edgeStyle=orthogonalEdgeStyle;rounded=0;orthogonalLoop=1;jettySize=auto;html=1;dashed=1;" parent="WIyWlLk6GJQsqaUBKTNV-1" source="6wN4SVHl45gBpFmaKFTB-3" target="6wN4SVHl45gBpFmaKFTB-41" edge="1">
          <mxGeometry relative="1" as="geometry">
            <mxPoint x="220" y="285" as="sourcePoint" />
            <Array as="points">
              <mxPoint x="70" y="200" />
              <mxPoint x="70" y="200" />
            </Array>
          </mxGeometry>
        </mxCell>
        <mxCell id="6wN4SVHl45gBpFmaKFTB-94" style="edgeStyle=orthogonalEdgeStyle;rounded=0;orthogonalLoop=1;jettySize=auto;html=1;dashed=1;endArrow=block;endFill=0;" parent="WIyWlLk6GJQsqaUBKTNV-1" source="6wN4SVHl45gBpFmaKFTB-3" target="6wN4SVHl45gBpFmaKFTB-93" edge="1">
          <mxGeometry relative="1" as="geometry" />
        </mxCell>
        <mxCell id="6wN4SVHl45gBpFmaKFTB-3" value="&lt;p style=&quot;margin:0px;margin-top:4px;text-align:center;&quot;&gt;&lt;i&gt;&amp;lt;&amp;lt;Interface&amp;gt;&amp;gt;&lt;/i&gt;&lt;br&gt;UtilisateurDao&lt;/p&gt;&lt;hr size=&quot;1&quot; style=&quot;border-style:solid;&quot;&gt;&lt;p style=&quot;margin:0px;margin-left:4px;&quot;&gt;&lt;br&gt;&lt;/p&gt;&lt;hr size=&quot;1&quot; style=&quot;border-style:solid;&quot;&gt;&lt;p style=&quot;margin:0px;margin-left:4px;&quot;&gt;&amp;nbsp;+ findByemail(email : String) : Optional&amp;lt;Utilisateur&amp;gt;&lt;/p&gt;" style="verticalAlign=top;align=left;overflow=fill;html=1;whiteSpace=wrap;" parent="WIyWlLk6GJQsqaUBKTNV-1" vertex="1">
          <mxGeometry x="-30" y="30" width="335" height="90" as="geometry" />
        </mxCell>
        <mxCell id="6wN4SVHl45gBpFmaKFTB-6" value="Application" style="swimlane;fontStyle=2;align=center;verticalAlign=top;childLayout=stackLayout;horizontal=1;startSize=26;horizontalStack=0;resizeParent=1;resizeLast=0;collapsible=1;marginBottom=0;rounded=0;shadow=0;strokeWidth=1;" parent="WIyWlLk6GJQsqaUBKTNV-1" vertex="1">
          <mxGeometry x="545" y="-520" width="115" height="90" as="geometry">
            <mxRectangle x="230" y="140" width="160" height="26" as="alternateBounds" />
          </mxGeometry>
        </mxCell>
        <mxCell id="6wN4SVHl45gBpFmaKFTB-7" value=" " style="text;align=left;verticalAlign=top;spacingLeft=4;spacingRight=4;overflow=hidden;rotatable=0;points=[[0,0.5],[1,0.5]];portConstraint=eastwest;rounded=0;shadow=0;html=0;" parent="6wN4SVHl45gBpFmaKFTB-6" vertex="1">
          <mxGeometry y="26" width="115" height="26" as="geometry" />
        </mxCell>
        <mxCell id="6wN4SVHl45gBpFmaKFTB-8" value="" style="line;html=1;strokeWidth=1;align=left;verticalAlign=middle;spacingTop=-1;spacingLeft=3;spacingRight=3;rotatable=0;labelPosition=right;points=[];portConstraint=eastwest;" parent="6wN4SVHl45gBpFmaKFTB-6" vertex="1">
          <mxGeometry y="52" width="115" height="8" as="geometry" />
        </mxCell>
        <mxCell id="6wN4SVHl45gBpFmaKFTB-16" style="edgeStyle=orthogonalEdgeStyle;rounded=0;orthogonalLoop=1;jettySize=auto;html=1;dashed=1;endArrow=none;endFill=0;startArrow=classic;startFill=1;" parent="WIyWlLk6GJQsqaUBKTNV-1" source="6wN4SVHl45gBpFmaKFTB-9" target="6wN4SVHl45gBpFmaKFTB-6" edge="1">
          <mxGeometry relative="1" as="geometry" />
        </mxCell>
        <mxCell id="6wN4SVHl45gBpFmaKFTB-18" value="@Bean" style="edgeLabel;html=1;align=center;verticalAlign=middle;resizable=0;points=[];" parent="6wN4SVHl45gBpFmaKFTB-16" vertex="1" connectable="0">
          <mxGeometry x="-0.0333" y="5" relative="1" as="geometry">
            <mxPoint x="23" as="offset" />
          </mxGeometry>
        </mxCell>
        <mxCell id="6wN4SVHl45gBpFmaKFTB-9" value="&lt;p style=&quot;margin:0px;margin-top:4px;text-align:center;&quot;&gt;BCryptPasswordEncoder&lt;/p&gt;&lt;hr size=&quot;1&quot; style=&quot;border-style:solid;&quot;&gt;&lt;p style=&quot;margin:0px;margin-left:4px;&quot;&gt;&lt;br&gt;&lt;/p&gt;" style="verticalAlign=top;align=left;overflow=fill;html=1;whiteSpace=wrap;fillColor=#dae8fc;strokeColor=#6c8ebf;" parent="WIyWlLk6GJQsqaUBKTNV-1" vertex="1">
          <mxGeometry x="507.5" y="-350" width="190" height="60" as="geometry" />
        </mxCell>
        <mxCell id="6wN4SVHl45gBpFmaKFTB-13" style="edgeStyle=orthogonalEdgeStyle;rounded=0;orthogonalLoop=1;jettySize=auto;html=1;strokeColor=#1900FF;" parent="WIyWlLk6GJQsqaUBKTNV-1" source="6wN4SVHl45gBpFmaKFTB-10" target="6wN4SVHl45gBpFmaKFTB-3" edge="1">
          <mxGeometry relative="1" as="geometry">
            <Array as="points">
              <mxPoint x="603" y="50" />
            </Array>
          </mxGeometry>
        </mxCell>
        <mxCell id="6wN4SVHl45gBpFmaKFTB-14" style="edgeStyle=orthogonalEdgeStyle;rounded=0;orthogonalLoop=1;jettySize=auto;html=1;strokeColor=#1900FF;" parent="WIyWlLk6GJQsqaUBKTNV-1" source="6wN4SVHl45gBpFmaKFTB-10" target="6wN4SVHl45gBpFmaKFTB-9" edge="1">
          <mxGeometry relative="1" as="geometry">
            <Array as="points">
              <mxPoint x="603" y="-170" />
              <mxPoint x="603" y="-170" />
            </Array>
          </mxGeometry>
        </mxCell>
        <mxCell id="6wN4SVHl45gBpFmaKFTB-78" style="edgeStyle=orthogonalEdgeStyle;rounded=0;orthogonalLoop=1;jettySize=auto;html=1;strokeColor=#1900FF;" parent="WIyWlLk6GJQsqaUBKTNV-1" source="6wN4SVHl45gBpFmaKFTB-10" target="6wN4SVHl45gBpFmaKFTB-84" edge="1">
          <mxGeometry relative="1" as="geometry">
            <Array as="points">
              <mxPoint x="470" y="-110" />
              <mxPoint x="470" y="-225" />
            </Array>
          </mxGeometry>
        </mxCell>
        <mxCell id="6wN4SVHl45gBpFmaKFTB-10" value="ConnexionController" style="swimlane;fontStyle=2;align=center;verticalAlign=top;childLayout=stackLayout;horizontal=1;startSize=26;horizontalStack=0;resizeParent=1;resizeLast=0;collapsible=1;marginBottom=0;rounded=0;shadow=0;strokeWidth=1;fillColor=#d5e8d4;strokeColor=#82b366;" parent="WIyWlLk6GJQsqaUBKTNV-1" vertex="1">
          <mxGeometry x="522.5" y="-120" width="160" height="90" as="geometry">
            <mxRectangle x="230" y="140" width="160" height="26" as="alternateBounds" />
          </mxGeometry>
        </mxCell>
        <mxCell id="6wN4SVHl45gBpFmaKFTB-12" value="" style="line;html=1;strokeWidth=1;align=left;verticalAlign=middle;spacingTop=-1;spacingLeft=3;spacingRight=3;rotatable=0;labelPosition=right;points=[];portConstraint=eastwest;" parent="6wN4SVHl45gBpFmaKFTB-10" vertex="1">
          <mxGeometry y="26" width="160" height="8" as="geometry" />
        </mxCell>
        <mxCell id="6wN4SVHl45gBpFmaKFTB-23" style="edgeStyle=orthogonalEdgeStyle;rounded=0;orthogonalLoop=1;jettySize=auto;html=1;fillColor=#dae8fc;strokeColor=#1900FF;" parent="WIyWlLk6GJQsqaUBKTNV-1" source="6wN4SVHl45gBpFmaKFTB-19" target="6wN4SVHl45gBpFmaKFTB-88" edge="1">
          <mxGeometry relative="1" as="geometry">
            <mxPoint x="250" y="-280" as="targetPoint" />
            <Array as="points">
              <mxPoint x="120" y="-320" />
            </Array>
          </mxGeometry>
        </mxCell>
        <mxCell id="6wN4SVHl45gBpFmaKFTB-28" style="edgeStyle=orthogonalEdgeStyle;rounded=0;orthogonalLoop=1;jettySize=auto;html=1;strokeColor=#1900FF;" parent="WIyWlLk6GJQsqaUBKTNV-1" source="6wN4SVHl45gBpFmaKFTB-19" target="6wN4SVHl45gBpFmaKFTB-24" edge="1">
          <mxGeometry relative="1" as="geometry" />
        </mxCell>
        <mxCell id="6wN4SVHl45gBpFmaKFTB-52" style="edgeStyle=orthogonalEdgeStyle;rounded=0;orthogonalLoop=1;jettySize=auto;html=1;strokeColor=#1900FF;" parent="WIyWlLk6GJQsqaUBKTNV-1" source="6wN4SVHl45gBpFmaKFTB-19" target="6wN4SVHl45gBpFmaKFTB-53" edge="1">
          <mxGeometry relative="1" as="geometry">
            <mxPoint x="-55" y="-310" as="targetPoint" />
            <Array as="points">
              <mxPoint x="-40" y="-240" />
              <mxPoint x="-40" y="-240" />
            </Array>
          </mxGeometry>
        </mxCell>
        <mxCell id="6wN4SVHl45gBpFmaKFTB-76" style="edgeStyle=orthogonalEdgeStyle;rounded=0;orthogonalLoop=1;jettySize=auto;html=1;dashed=1;" parent="WIyWlLk6GJQsqaUBKTNV-1" source="6wN4SVHl45gBpFmaKFTB-19" target="6wN4SVHl45gBpFmaKFTB-72" edge="1">
          <mxGeometry relative="1" as="geometry" />
        </mxCell>
        <mxCell id="6wN4SVHl45gBpFmaKFTB-77" value="@Bean" style="edgeLabel;html=1;align=center;verticalAlign=middle;resizable=0;points=[];" parent="6wN4SVHl45gBpFmaKFTB-76" vertex="1" connectable="0">
          <mxGeometry x="-0.5464" y="4" relative="1" as="geometry">
            <mxPoint x="16" y="15" as="offset" />
          </mxGeometry>
        </mxCell>
        <mxCell id="6wN4SVHl45gBpFmaKFTB-19" value="SecuriteConfig" style="swimlane;fontStyle=2;align=center;verticalAlign=top;childLayout=stackLayout;horizontal=1;startSize=26;horizontalStack=0;resizeParent=1;resizeLast=0;collapsible=1;marginBottom=0;rounded=0;shadow=0;strokeWidth=1;fillColor=#d5e8d4;strokeColor=#82b366;" parent="WIyWlLk6GJQsqaUBKTNV-1" vertex="1">
          <mxGeometry x="-140" y="-190" width="315" height="90" as="geometry">
            <mxRectangle x="230" y="140" width="160" height="26" as="alternateBounds" />
          </mxGeometry>
        </mxCell>
        <mxCell id="6wN4SVHl45gBpFmaKFTB-20" value=" " style="text;align=left;verticalAlign=top;spacingLeft=4;spacingRight=4;overflow=hidden;rotatable=0;points=[[0,0.5],[1,0.5]];portConstraint=eastwest;rounded=0;shadow=0;html=0;" parent="6wN4SVHl45gBpFmaKFTB-19" vertex="1">
          <mxGeometry y="26" width="315" height="26" as="geometry" />
        </mxCell>
        <mxCell id="6wN4SVHl45gBpFmaKFTB-21" value="" style="line;html=1;strokeWidth=1;align=left;verticalAlign=middle;spacingTop=-1;spacingLeft=3;spacingRight=3;rotatable=0;labelPosition=right;points=[];portConstraint=eastwest;" parent="6wN4SVHl45gBpFmaKFTB-19" vertex="1">
          <mxGeometry y="52" width="315" height="8" as="geometry" />
        </mxCell>
        <mxCell id="6wN4SVHl45gBpFmaKFTB-22" value="+&amp;nbsp;&lt;span class=&quot;hljs-selector-tag&quot;&gt;passwordEncoder&lt;/span&gt;() : &lt;span class=&quot;hljs-selector-tag&quot;&gt;BCryptPasswordEncoder&lt;/span&gt;" style="text;strokeColor=none;fillColor=none;align=left;verticalAlign=top;spacingLeft=4;spacingRight=4;overflow=hidden;rotatable=0;points=[[0,0.5],[1,0.5]];portConstraint=eastwest;whiteSpace=wrap;html=1;" parent="6wN4SVHl45gBpFmaKFTB-19" vertex="1">
          <mxGeometry y="60" width="315" height="26" as="geometry" />
        </mxCell>
        <mxCell id="6wN4SVHl45gBpFmaKFTB-34" style="edgeStyle=orthogonalEdgeStyle;rounded=0;orthogonalLoop=1;jettySize=auto;html=1;dashed=1;endArrow=block;endFill=0;" parent="WIyWlLk6GJQsqaUBKTNV-1" source="6wN4SVHl45gBpFmaKFTB-24" target="6wN4SVHl45gBpFmaKFTB-33" edge="1">
          <mxGeometry relative="1" as="geometry">
            <mxPoint x="-350" y="-360" as="targetPoint" />
            <Array as="points">
              <mxPoint x="-370" y="-140" />
              <mxPoint x="-370" y="-140" />
            </Array>
          </mxGeometry>
        </mxCell>
        <mxCell id="6wN4SVHl45gBpFmaKFTB-46" style="edgeStyle=orthogonalEdgeStyle;rounded=0;orthogonalLoop=1;jettySize=auto;html=1;dashed=1;" parent="WIyWlLk6GJQsqaUBKTNV-1" source="6wN4SVHl45gBpFmaKFTB-24" target="6wN4SVHl45gBpFmaKFTB-36" edge="1">
          <mxGeometry relative="1" as="geometry">
            <Array as="points">
              <mxPoint x="-260" y="70" />
              <mxPoint x="-137" y="70" />
            </Array>
          </mxGeometry>
        </mxCell>
        <mxCell id="6wN4SVHl45gBpFmaKFTB-83" style="edgeStyle=orthogonalEdgeStyle;rounded=0;orthogonalLoop=1;jettySize=auto;html=1;strokeColor=#1900FF;" parent="WIyWlLk6GJQsqaUBKTNV-1" source="6wN4SVHl45gBpFmaKFTB-24" target="6wN4SVHl45gBpFmaKFTB-3" edge="1">
          <mxGeometry relative="1" as="geometry">
            <Array as="points">
              <mxPoint x="20" y="-20" />
            </Array>
          </mxGeometry>
        </mxCell>
        <mxCell id="6wN4SVHl45gBpFmaKFTB-24" value="AppUserDetailsService" style="swimlane;fontStyle=2;align=center;verticalAlign=top;childLayout=stackLayout;horizontal=1;startSize=26;horizontalStack=0;resizeParent=1;resizeLast=0;collapsible=1;marginBottom=0;rounded=0;shadow=0;strokeWidth=1;fillColor=#d5e8d4;strokeColor=#82b366;" parent="WIyWlLk6GJQsqaUBKTNV-1" vertex="1">
          <mxGeometry x="-390" y="-100" width="155" height="90" as="geometry">
            <mxRectangle x="230" y="140" width="160" height="26" as="alternateBounds" />
          </mxGeometry>
        </mxCell>
        <mxCell id="6wN4SVHl45gBpFmaKFTB-25" value=" " style="text;align=left;verticalAlign=top;spacingLeft=4;spacingRight=4;overflow=hidden;rotatable=0;points=[[0,0.5],[1,0.5]];portConstraint=eastwest;rounded=0;shadow=0;html=0;" parent="6wN4SVHl45gBpFmaKFTB-24" vertex="1">
          <mxGeometry y="26" width="155" height="26" as="geometry" />
        </mxCell>
        <mxCell id="6wN4SVHl45gBpFmaKFTB-26" value="" style="line;html=1;strokeWidth=1;align=left;verticalAlign=middle;spacingTop=-1;spacingLeft=3;spacingRight=3;rotatable=0;labelPosition=right;points=[];portConstraint=eastwest;" parent="6wN4SVHl45gBpFmaKFTB-24" vertex="1">
          <mxGeometry y="52" width="155" height="8" as="geometry" />
        </mxCell>
        <mxCell id="6wN4SVHl45gBpFmaKFTB-27" value="&amp;nbsp;" style="text;strokeColor=none;fillColor=none;align=left;verticalAlign=top;spacingLeft=4;spacingRight=4;overflow=hidden;rotatable=0;points=[[0,0.5],[1,0.5]];portConstraint=eastwest;whiteSpace=wrap;html=1;" parent="6wN4SVHl45gBpFmaKFTB-24" vertex="1">
          <mxGeometry y="60" width="155" height="26" as="geometry" />
        </mxCell>
        <mxCell id="6wN4SVHl45gBpFmaKFTB-33" value="&lt;p style=&quot;margin:0px;margin-top:4px;text-align:center;&quot;&gt;&lt;i&gt;&amp;lt;&amp;lt;Interface&amp;gt;&amp;gt;&lt;/i&gt;&lt;br&gt;UserDetailsService&lt;/p&gt;&lt;hr size=&quot;1&quot; style=&quot;border-style:solid;&quot;&gt;&lt;p style=&quot;margin:0px;margin-left:4px;&quot;&gt;&lt;/p&gt;&lt;p style=&quot;margin:0px;margin-left:4px;&quot;&gt;&lt;br&gt;&lt;/p&gt;" style="verticalAlign=top;align=left;overflow=fill;html=1;whiteSpace=wrap;fillColor=#dae8fc;strokeColor=#6c8ebf;" parent="WIyWlLk6GJQsqaUBKTNV-1" vertex="1">
          <mxGeometry x="-480" y="-230" width="190" height="50" as="geometry" />
        </mxCell>
        <mxCell id="6wN4SVHl45gBpFmaKFTB-35" style="edgeStyle=orthogonalEdgeStyle;rounded=0;orthogonalLoop=1;jettySize=auto;html=1;dashed=1;endArrow=block;endFill=0;" parent="WIyWlLk6GJQsqaUBKTNV-1" source="6wN4SVHl45gBpFmaKFTB-36" target="6wN4SVHl45gBpFmaKFTB-40" edge="1">
          <mxGeometry relative="1" as="geometry">
            <Array as="points">
              <mxPoint x="-250" y="135" />
              <mxPoint x="-250" y="135" />
            </Array>
          </mxGeometry>
        </mxCell>
        <mxCell id="6wN4SVHl45gBpFmaKFTB-43" style="edgeStyle=orthogonalEdgeStyle;rounded=0;orthogonalLoop=1;jettySize=auto;html=1;" parent="WIyWlLk6GJQsqaUBKTNV-1" source="6wN4SVHl45gBpFmaKFTB-36" target="6wN4SVHl45gBpFmaKFTB-41" edge="1">
          <mxGeometry relative="1" as="geometry">
            <Array as="points">
              <mxPoint x="-137" y="275" />
            </Array>
          </mxGeometry>
        </mxCell>
        <mxCell id="6wN4SVHl45gBpFmaKFTB-36" value="AppUserDetails" style="swimlane;fontStyle=2;align=center;verticalAlign=top;childLayout=stackLayout;horizontal=1;startSize=26;horizontalStack=0;resizeParent=1;resizeLast=0;collapsible=1;marginBottom=0;rounded=0;shadow=0;strokeWidth=1;fillColor=#d5e8d4;strokeColor=#82b366;" parent="WIyWlLk6GJQsqaUBKTNV-1" vertex="1">
          <mxGeometry x="-220" y="90" width="165" height="90" as="geometry">
            <mxRectangle x="230" y="140" width="160" height="26" as="alternateBounds" />
          </mxGeometry>
        </mxCell>
        <mxCell id="6wN4SVHl45gBpFmaKFTB-37" value=" " style="text;align=left;verticalAlign=top;spacingLeft=4;spacingRight=4;overflow=hidden;rotatable=0;points=[[0,0.5],[1,0.5]];portConstraint=eastwest;rounded=0;shadow=0;html=0;" parent="6wN4SVHl45gBpFmaKFTB-36" vertex="1">
          <mxGeometry y="26" width="165" height="26" as="geometry" />
        </mxCell>
        <mxCell id="6wN4SVHl45gBpFmaKFTB-38" value="" style="line;html=1;strokeWidth=1;align=left;verticalAlign=middle;spacingTop=-1;spacingLeft=3;spacingRight=3;rotatable=0;labelPosition=right;points=[];portConstraint=eastwest;" parent="6wN4SVHl45gBpFmaKFTB-36" vertex="1">
          <mxGeometry y="52" width="165" height="8" as="geometry" />
        </mxCell>
        <mxCell id="6wN4SVHl45gBpFmaKFTB-39" value="&amp;nbsp;" style="text;strokeColor=none;fillColor=none;align=left;verticalAlign=top;spacingLeft=4;spacingRight=4;overflow=hidden;rotatable=0;points=[[0,0.5],[1,0.5]];portConstraint=eastwest;whiteSpace=wrap;html=1;" parent="6wN4SVHl45gBpFmaKFTB-36" vertex="1">
          <mxGeometry y="60" width="165" height="26" as="geometry" />
        </mxCell>
        <mxCell id="6wN4SVHl45gBpFmaKFTB-40" value="&lt;p style=&quot;margin:0px;margin-top:4px;text-align:center;&quot;&gt;&lt;i&gt;&amp;lt;&amp;lt;Interface&amp;gt;&amp;gt;&lt;/i&gt;&lt;br&gt;UserDetails&lt;/p&gt;&lt;hr size=&quot;1&quot; style=&quot;border-style:solid;&quot;&gt;&lt;p style=&quot;margin:0px;margin-left:4px;&quot;&gt;&lt;/p&gt;&lt;p style=&quot;margin:0px;margin-left:4px;&quot;&gt;&lt;br&gt;&lt;/p&gt;" style="verticalAlign=top;align=left;overflow=fill;html=1;whiteSpace=wrap;fillColor=#dae8fc;strokeColor=#6c8ebf;" parent="WIyWlLk6GJQsqaUBKTNV-1" vertex="1">
          <mxGeometry x="-460" y="110" width="190" height="50" as="geometry" />
        </mxCell>
        <mxCell id="6wN4SVHl45gBpFmaKFTB-41" value="Utilisateur" style="swimlane;fontStyle=2;align=center;verticalAlign=top;childLayout=stackLayout;horizontal=1;startSize=26;horizontalStack=0;resizeParent=1;resizeLast=0;collapsible=1;marginBottom=0;rounded=0;shadow=0;strokeWidth=1;" parent="WIyWlLk6GJQsqaUBKTNV-1" vertex="1">
          <mxGeometry x="-80" y="230" width="160" height="90" as="geometry">
            <mxRectangle x="230" y="140" width="160" height="26" as="alternateBounds" />
          </mxGeometry>
        </mxCell>
        <mxCell id="6wN4SVHl45gBpFmaKFTB-42" value="" style="line;html=1;strokeWidth=1;align=left;verticalAlign=middle;spacingTop=-1;spacingLeft=3;spacingRight=3;rotatable=0;labelPosition=right;points=[];portConstraint=eastwest;" parent="6wN4SVHl45gBpFmaKFTB-41" vertex="1">
          <mxGeometry y="26" width="160" height="8" as="geometry" />
        </mxCell>
        <mxCell id="6wN4SVHl45gBpFmaKFTB-55" style="edgeStyle=orthogonalEdgeStyle;rounded=0;orthogonalLoop=1;jettySize=auto;html=1;strokeColor=#1900FF;" parent="WIyWlLk6GJQsqaUBKTNV-1" source="6wN4SVHl45gBpFmaKFTB-68" target="6wN4SVHl45gBpFmaKFTB-24" edge="1">
          <mxGeometry relative="1" as="geometry">
            <mxPoint x="-110" y="-310" as="sourcePoint" />
            <Array as="points">
              <mxPoint x="-260" y="-446" />
            </Array>
          </mxGeometry>
        </mxCell>
        <mxCell id="6wN4SVHl45gBpFmaKFTB-57" style="edgeStyle=orthogonalEdgeStyle;rounded=0;orthogonalLoop=1;jettySize=auto;html=1;" parent="WIyWlLk6GJQsqaUBKTNV-1" source="6wN4SVHl45gBpFmaKFTB-68" target="6wN4SVHl45gBpFmaKFTB-59" edge="1">
          <mxGeometry relative="1" as="geometry">
            <mxPoint x="30" y="-421.9999999999998" as="sourcePoint" />
            <mxPoint x="119.99999999999977" y="-461.9655172413793" as="targetPoint" />
          </mxGeometry>
        </mxCell>
        <mxCell id="6wN4SVHl45gBpFmaKFTB-51" value="Extends" style="endArrow=block;endSize=16;endFill=0;html=1;rounded=0;" parent="WIyWlLk6GJQsqaUBKTNV-1" source="6wN4SVHl45gBpFmaKFTB-68" target="6wN4SVHl45gBpFmaKFTB-53" edge="1">
          <mxGeometry width="160" relative="1" as="geometry">
            <mxPoint x="-65" y="-452" as="sourcePoint" />
            <mxPoint x="-65" y="-512" as="targetPoint" />
          </mxGeometry>
        </mxCell>
        <mxCell id="6wN4SVHl45gBpFmaKFTB-53" value="&lt;p style=&quot;margin:0px;margin-top:4px;text-align:center;&quot;&gt;&lt;i&gt;&amp;lt;&amp;lt;Abstract&amp;gt;&amp;gt;&lt;/i&gt;&lt;br&gt;OncePerRequestFilter&lt;/p&gt;&lt;hr size=&quot;1&quot; style=&quot;border-style:solid;&quot;&gt;&lt;p style=&quot;margin:0px;margin-left:4px;&quot;&gt;&lt;/p&gt;&lt;p style=&quot;margin:0px;margin-left:4px;&quot;&gt;&lt;br&gt;&lt;/p&gt;" style="verticalAlign=top;align=left;overflow=fill;html=1;whiteSpace=wrap;fillColor=#dae8fc;strokeColor=#6c8ebf;" parent="WIyWlLk6GJQsqaUBKTNV-1" vertex="1">
          <mxGeometry x="-165" y="-350" width="190" height="50" as="geometry" />
        </mxCell>
        <mxCell id="6wN4SVHl45gBpFmaKFTB-67" style="edgeStyle=orthogonalEdgeStyle;rounded=0;orthogonalLoop=1;jettySize=auto;html=1;dashed=1;" parent="WIyWlLk6GJQsqaUBKTNV-1" source="6wN4SVHl45gBpFmaKFTB-59" target="6wN4SVHl45gBpFmaKFTB-64" edge="1">
          <mxGeometry relative="1" as="geometry" />
        </mxCell>
        <mxCell id="6wN4SVHl45gBpFmaKFTB-59" value="JwtUtils" style="swimlane;fontStyle=0;childLayout=stackLayout;horizontal=1;startSize=26;fillColor=#d5e8d4;horizontalStack=0;resizeParent=1;resizeParentMax=0;resizeLast=0;collapsible=1;marginBottom=0;whiteSpace=wrap;html=1;strokeColor=#82b366;" parent="WIyWlLk6GJQsqaUBKTNV-1" vertex="1">
          <mxGeometry x="130" y="-485" width="240" height="78" as="geometry" />
        </mxCell>
        <mxCell id="6wN4SVHl45gBpFmaKFTB-60" value="+ generateToken(UserDetails user) : String" style="text;strokeColor=none;fillColor=none;align=left;verticalAlign=top;spacingLeft=4;spacingRight=4;overflow=hidden;rotatable=0;points=[[0,0.5],[1,0.5]];portConstraint=eastwest;whiteSpace=wrap;html=1;" parent="6wN4SVHl45gBpFmaKFTB-59" vertex="1">
          <mxGeometry y="26" width="240" height="26" as="geometry" />
        </mxCell>
        <mxCell id="6wN4SVHl45gBpFmaKFTB-61" value="+ getSubject(String jwt): String" style="text;strokeColor=none;fillColor=none;align=left;verticalAlign=top;spacingLeft=4;spacingRight=4;overflow=hidden;rotatable=0;points=[[0,0.5],[1,0.5]];portConstraint=eastwest;whiteSpace=wrap;html=1;" parent="6wN4SVHl45gBpFmaKFTB-59" vertex="1">
          <mxGeometry y="52" width="240" height="26" as="geometry" />
        </mxCell>
        <mxCell id="6wN4SVHl45gBpFmaKFTB-64" value="io.jsonwebtoken.Jwts" style="swimlane;fontStyle=0;childLayout=stackLayout;horizontal=1;startSize=26;fillColor=#dae8fc;horizontalStack=0;resizeParent=1;resizeParentMax=0;resizeLast=0;collapsible=1;marginBottom=0;whiteSpace=wrap;html=1;strokeColor=#6c8ebf;" parent="WIyWlLk6GJQsqaUBKTNV-1" vertex="1">
          <mxGeometry x="172.5" y="-584" width="155" height="52" as="geometry" />
        </mxCell>
        <mxCell id="6wN4SVHl45gBpFmaKFTB-68" value="JwtFilter" style="swimlane;fontStyle=0;childLayout=stackLayout;horizontal=1;startSize=26;fillColor=#d5e8d4;horizontalStack=0;resizeParent=1;resizeParentMax=0;resizeLast=0;collapsible=1;marginBottom=0;whiteSpace=wrap;html=1;strokeColor=#82b366;" parent="WIyWlLk6GJQsqaUBKTNV-1" vertex="1">
          <mxGeometry x="-190" y="-472" width="240" height="52" as="geometry" />
        </mxCell>
        <mxCell id="6wN4SVHl45gBpFmaKFTB-70" value="+ doFilterInternal(...)" style="text;strokeColor=none;fillColor=none;align=left;verticalAlign=top;spacingLeft=4;spacingRight=4;overflow=hidden;rotatable=0;points=[[0,0.5],[1,0.5]];portConstraint=eastwest;whiteSpace=wrap;html=1;" parent="6wN4SVHl45gBpFmaKFTB-68" vertex="1">
          <mxGeometry y="26" width="240" height="26" as="geometry" />
        </mxCell>
        <mxCell id="6wN4SVHl45gBpFmaKFTB-72" value="DaoAuthenticationProvider" style="swimlane;fontStyle=2;align=center;verticalAlign=top;childLayout=stackLayout;horizontal=1;startSize=26;horizontalStack=0;resizeParent=1;resizeLast=0;collapsible=1;marginBottom=0;rounded=0;shadow=0;strokeWidth=1;fillColor=#dae8fc;strokeColor=#6c8ebf;" parent="WIyWlLk6GJQsqaUBKTNV-1" vertex="1">
          <mxGeometry x="255" y="-140" width="190" height="50" as="geometry">
            <mxRectangle x="230" y="140" width="160" height="26" as="alternateBounds" />
          </mxGeometry>
        </mxCell>
        <mxCell id="6wN4SVHl45gBpFmaKFTB-74" value="" style="line;html=1;strokeWidth=1;align=left;verticalAlign=middle;spacingTop=-1;spacingLeft=3;spacingRight=3;rotatable=0;labelPosition=right;points=[];portConstraint=eastwest;" parent="6wN4SVHl45gBpFmaKFTB-72" vertex="1">
          <mxGeometry y="26" width="190" height="8" as="geometry" />
        </mxCell>
        <mxCell id="6wN4SVHl45gBpFmaKFTB-79" value="SecurityFilterChain" style="swimlane;fontStyle=2;align=center;verticalAlign=top;childLayout=stackLayout;horizontal=1;startSize=26;horizontalStack=0;resizeParent=1;resizeLast=0;collapsible=1;marginBottom=0;rounded=0;shadow=0;strokeWidth=1;fillColor=#dae8fc;strokeColor=#6c8ebf;" parent="WIyWlLk6GJQsqaUBKTNV-1" vertex="1">
          <mxGeometry x="255" y="-40" width="190" height="50" as="geometry">
            <mxRectangle x="230" y="140" width="160" height="26" as="alternateBounds" />
          </mxGeometry>
        </mxCell>
        <mxCell id="6wN4SVHl45gBpFmaKFTB-80" value="" style="line;html=1;strokeWidth=1;align=left;verticalAlign=middle;spacingTop=-1;spacingLeft=3;spacingRight=3;rotatable=0;labelPosition=right;points=[];portConstraint=eastwest;" parent="6wN4SVHl45gBpFmaKFTB-79" vertex="1">
          <mxGeometry y="26" width="190" height="8" as="geometry" />
        </mxCell>
        <mxCell id="6wN4SVHl45gBpFmaKFTB-81" style="edgeStyle=orthogonalEdgeStyle;rounded=0;orthogonalLoop=1;jettySize=auto;html=1;dashed=1;" parent="WIyWlLk6GJQsqaUBKTNV-1" source="6wN4SVHl45gBpFmaKFTB-19" target="6wN4SVHl45gBpFmaKFTB-79" edge="1">
          <mxGeometry relative="1" as="geometry">
            <mxPoint x="185" y="-135" as="sourcePoint" />
            <mxPoint x="265" y="-135" as="targetPoint" />
            <Array as="points">
              <mxPoint x="130" y="-15" />
            </Array>
          </mxGeometry>
        </mxCell>
        <mxCell id="6wN4SVHl45gBpFmaKFTB-82" value="@Bean" style="edgeLabel;html=1;align=center;verticalAlign=middle;resizable=0;points=[];" parent="6wN4SVHl45gBpFmaKFTB-81" vertex="1" connectable="0">
          <mxGeometry x="-0.5464" y="4" relative="1" as="geometry">
            <mxPoint x="16" y="15" as="offset" />
          </mxGeometry>
        </mxCell>
        <mxCell id="6wN4SVHl45gBpFmaKFTB-84" value="AuthenticationProvider" style="swimlane;fontStyle=2;align=center;verticalAlign=top;childLayout=stackLayout;horizontal=1;startSize=26;horizontalStack=0;resizeParent=1;resizeLast=0;collapsible=1;marginBottom=0;rounded=0;shadow=0;strokeWidth=1;fillColor=#dae8fc;strokeColor=#6c8ebf;" parent="WIyWlLk6GJQsqaUBKTNV-1" vertex="1">
          <mxGeometry x="255" y="-250" width="190" height="50" as="geometry">
            <mxRectangle x="230" y="140" width="160" height="26" as="alternateBounds" />
          </mxGeometry>
        </mxCell>
        <mxCell id="6wN4SVHl45gBpFmaKFTB-85" value="" style="line;html=1;strokeWidth=1;align=left;verticalAlign=middle;spacingTop=-1;spacingLeft=3;spacingRight=3;rotatable=0;labelPosition=right;points=[];portConstraint=eastwest;" parent="6wN4SVHl45gBpFmaKFTB-84" vertex="1">
          <mxGeometry y="26" width="190" height="8" as="geometry" />
        </mxCell>
        <mxCell id="6wN4SVHl45gBpFmaKFTB-86" value="Extends" style="endArrow=block;endSize=16;endFill=0;html=1;rounded=0;" parent="WIyWlLk6GJQsqaUBKTNV-1" source="6wN4SVHl45gBpFmaKFTB-72" target="6wN4SVHl45gBpFmaKFTB-84" edge="1">
          <mxGeometry width="160" relative="1" as="geometry">
            <mxPoint x="310" y="-90" as="sourcePoint" />
            <mxPoint x="470" y="-90" as="targetPoint" />
          </mxGeometry>
        </mxCell>
        <mxCell id="6wN4SVHl45gBpFmaKFTB-88" value="&lt;p style=&quot;margin:0px;margin-top:4px;text-align:center;&quot;&gt;PasswordEncoder&lt;/p&gt;&lt;hr size=&quot;1&quot; style=&quot;border-style:solid;&quot;&gt;&lt;p style=&quot;margin:0px;margin-left:4px;&quot;&gt;&lt;br&gt;&lt;/p&gt;" style="verticalAlign=top;align=left;overflow=fill;html=1;whiteSpace=wrap;fillColor=#dae8fc;strokeColor=#6c8ebf;" parent="WIyWlLk6GJQsqaUBKTNV-1" vertex="1">
          <mxGeometry x="210" y="-340" width="190" height="40" as="geometry" />
        </mxCell>
        <mxCell id="6wN4SVHl45gBpFmaKFTB-89" value="Extends" style="endArrow=block;endSize=16;endFill=0;html=1;rounded=0;" parent="WIyWlLk6GJQsqaUBKTNV-1" source="6wN4SVHl45gBpFmaKFTB-88" target="6wN4SVHl45gBpFmaKFTB-9" edge="1">
          <mxGeometry width="160" relative="1" as="geometry">
            <mxPoint x="60" y="-260" as="sourcePoint" />
            <mxPoint x="220" y="-260" as="targetPoint" />
          </mxGeometry>
        </mxCell>
        <mxCell id="6wN4SVHl45gBpFmaKFTB-93" value="&lt;p style=&quot;margin:0px;margin-top:4px;text-align:center;&quot;&gt;&lt;i&gt;&amp;lt;&amp;lt;Interface&amp;gt;&amp;gt;&lt;/i&gt;&lt;br&gt;&lt;span style=&quot;font-style: italic; text-wrap-mode: nowrap;&quot;&gt;JPARepository&lt;/span&gt;&lt;/p&gt;&lt;hr size=&quot;1&quot; style=&quot;border-style:solid;&quot;&gt;&lt;p style=&quot;margin:0px;margin-left:4px;&quot;&gt;&lt;br&gt;&lt;/p&gt;" style="verticalAlign=top;align=left;overflow=fill;html=1;whiteSpace=wrap;" parent="WIyWlLk6GJQsqaUBKTNV-1" vertex="1">
          <mxGeometry x="350" y="140" width="140" height="50" as="geometry" />
        </mxCell>
      </root>
    </mxGraphModel>
  </diagram>
</mxfile>
